<?xml version="1.0" encoding="UTF-8" standalone="no"?><!--Generator: Adobe Illustrator 25.4.1, SVG Export Plug-In . SVG Version: 6.00 Build 0)--><svg xmlns:inkscape="http://www.inkscape.org/namespaces/inkscape" xmlns:sodipodi="http://sodipodi.sourceforge.net/DTD/sodipodi-0.dtd" xmlns="http://www.w3.org/2000/svg" xmlns:svg="http://www.w3.org/2000/svg" version="1.1" id="Layer_1" x="0px" y="0px" viewBox="0 0 3839 1424.2" xml:space="preserve" sodipodi:docname="logo.svg" inkscape:version="1.1.2 (0a00cf5339, 2022-02-04)" enable-background="new 0 0 3839 1424.2"><defs id="defs55"/><sodipodi:namedview id="namedview53" pagecolor="#ffffff" bordercolor="#666666" borderopacity="1.0" inkscape:pageshadow="2" inkscape:pageopacity="0.0" inkscape:pagecheckerboard="0" showgrid="false" inkscape:zoom="0.44334462" inkscape:cx="1920.6278" inkscape:cy="711.63602" inkscape:window-width="3840" inkscape:window-height="2065" inkscape:window-x="0" inkscape:window-y="0" inkscape:window-maximized="1" inkscape:current-layer="Layer_1"/><path d="m 3817.5,744.6 c -14.1,-34 -33.3,-63.9 -57.2,-89 -23.9,-25.2 -52.1,-45.4 -83.5,-60.1 -32.4,-15.1 -66.6,-22.7 -101.5,-22.7 h -556.4 v 0 H 2733.7 2682.2 2393 c -34.9,0 -69,7.7 -101.5,22.7 -31.5,14.7 -59.6,34.9 -83.5,60 -16.8,17.7 -31.3,37.8 -43.3,60 -10.5,-29.3 -25.3,-54.4 -44.5,-74.8 -23.4,-24.8 -53.2,-42.8 -88.5,-53.6 -31.5,-9.6 -68.7,-14.4 -110.8,-14.4 h -345.3 v 83.5 c -4.1,-5.4 -8.4,-10.6 -12.9,-15.4 -23.4,-24.8 -53.2,-42.9 -88.5,-53.6 -31.5,-9.6 -68.7,-14.4 -110.8,-14.4 h -97.6 c -41.6,0 -78.5,4.9 -109.8,14.5 -34.8,10.7 -64.5,28.6 -88.1,53.3 -23.3,24.3 -40.6,55.6 -51.3,92.8 -9.7,33.7 -14.6,74.6 -14.6,121.4 v 157 L 888.4,690.7 c -5.1,-15.1 -12.5,-29.7 -22,-43.4 -9.7,-14 -21.6,-26.7 -35.5,-37.7 -14.5,-11.5 -31.6,-20.7 -50.6,-27.2 -18.8,-6.4 -39.6,-9.6 -62,-9.6 -23.2,0 -44.2,3.3 -62.5,9.9 -18.4,6.6 -34.8,15.9 -48.9,27.7 -12.3,10.3 -23.2,22.1 -32.4,35 -9.3,-13.1 -20.5,-25 -33.3,-35.5 -14.2,-11.5 -30.5,-20.7 -48.7,-27.3 -18.3,-6.6 -39.3,-9.9 -62.5,-9.9 -23,0 -44.1,3.3 -62.6,9.7 -18.7,6.5 -35.5,15.6 -50,27.1 -14.1,11.2 -26.1,24.2 -35.6,38.5 -8.7,13.1 -15.9,26.9 -21.3,41.2 L 0,1424.2 h 340.8 l 92.4,-280.4 105.2,280.4 H 610 l 105.9,-282.4 95.8,282.4 h 336.7 l -7.3,-20.7 c 4.6,1.9 9.4,3.6 14.2,5.2 31.5,10.3 68.7,15.5 110.6,15.5 h 97.6 c 42.4,0 79.9,-5.2 111.6,-15.5 35,-11.3 64.6,-29.8 87.9,-54.7 4.5,-4.8 8.7,-10 12.7,-15.3 v 85.5 H 1921 c 42.4,0 79.9,-5.2 111.6,-15.5 35,-11.3 64.6,-29.8 87.9,-54.7 18.7,-20.1 33.4,-44.8 43.7,-73.5 12.1,22.6 26.8,43 43.8,60.9 24,25.2 52.1,45.4 83.5,60.1 32.4,15.1 66.6,22.8 101.5,22.8 h 340.7 v -116.5 c 8.3,12 17.3,23.3 27.2,33.6 24,25.2 52.1,45.4 83.5,60.1 32.4,15.1 66.6,22.8 101.5,22.8 h 202.8 v 0 h 426.7 c 34.9,0 69.1,-7.7 101.5,-22.7 31.5,-14.6 59.6,-34.8 83.5,-60.1 23.9,-25.1 43.1,-55.1 57.2,-89 14.3,-34.4 21.5,-71.4 21.5,-110.2 V 854.8 C 3839,816 3831.8,779 3817.5,744.6 Z m -524.9,346 h -6 v 0 h -253.2 v -0.8 h -14.5 V 906.4 h 273.7 z" id="path4" fill="#ffffff" fill-opacity="1"/><path d="M 1627.3,854.7 V 753.3 h 293.6 c 17.8,0 32.4,2.4 43.8,7.2 11.4,4.8 20.5,11.6 27.1,20.2 6.6,8.7 11.2,18.8 13.7,30.5 2.5,11.7 3.8,24.2 3.8,37.4 v 299.7 c 0,17.8 -1.3,32.7 -3.8,44.6 -2.5,12 -7,21.7 -13.3,29.4 -6.4,7.6 -15.3,13.1 -26.7,16.4 -11.4,3.3 -26.1,5 -43.8,5 H 1750.9 V 879.2 h 106.8 v 243.3 c 0,13.2 6.4,19.8 19.1,19.8 h 16.8 c 6.1,0 11.1,-1.8 14.9,-5.3 3.8,-3.6 5.7,-8.4 5.7,-14.5 V 874.6 c 0,-6.1 -1.9,-10.9 -5.7,-14.5 -3.8,-3.5 -8.8,-5.3 -14.9,-5.3 h -266.3 z m 353.1,408.4 c 13.2,-5.3 24,-12.8 32.4,-22.5 8.4,-9.7 14.5,-21.1 18.3,-34.3 3.8,-13.2 5.7,-27.5 5.7,-42.7 V 833.4 c 0,-15.3 -1.9,-29.5 -5.7,-42.7 -3.8,-13.2 -9.9,-24.7 -18.3,-34.3 -8.4,-9.7 -19.3,-17.2 -32.8,-22.5 -13.5,-5.3 -29.9,-8 -49.2,-8 H 1627.3 V 624.4 h 293.6 c 37.1,0 69,4.1 95.7,12.2 26.7,8.1 48.7,21.4 66,39.7 17.3,18.3 30,42.1 38.1,71.3 8.1,29.2 12.2,65 12.2,107.1 v 287.5 c 0,40.7 -4.1,75.6 -12.2,104.9 -8.1,29.2 -20.9,53.1 -38.1,71.7 -17.3,18.6 -39.3,32.2 -66,40.8 -26.7,8.7 -58.6,13 -95.7,13 H 1627.3 V 879.2 h 96.1 v 392 h 208.2 c 19.3,-0.1 35.6,-2.7 48.8,-8.1 z" id="path6" fill="#034693" fill-opacity="1"/><path d="m 3787.3,1142.3 c 0,32 -5.8,62.2 -17.5,90.4 -11.7,28.2 -27.3,52.6 -46.9,73.2 -19.6,20.6 -42.2,36.9 -67.9,48.8 -25.7,12 -52.2,17.9 -79.7,17.9 h -311 v -101.4 h 298.8 c 19.3,0 36.6,-3.8 51.9,-11.4 15.3,-7.6 28.1,-17.5 38.5,-29.7 10.4,-12.2 18.4,-26 24,-41.6 5.6,-15.5 8.4,-30.9 8.4,-46.1 V 854.8 c 0,-15.3 -2.8,-30.6 -8.4,-46.1 -5.6,-15.5 -13.6,-29.4 -24,-41.6 -10.4,-12.2 -23.3,-22.1 -38.5,-29.7 -15.3,-7.6 -32.5,-11.4 -51.9,-11.4 H 3019 V 624.4 h 556.3 c 27.5,0 54,6 79.7,17.9 25.7,12 48.3,28.2 67.9,48.8 19.6,20.6 35.2,45 46.9,73.2 11.7,28.2 17.5,58.3 17.5,90.4 z m -443,-156.4 V 885.3 h 221.2 v -10.7 c 0,-6.1 -1.6,-10.9 -5,-14.5 -3.3,-3.5 -6.5,-5.3 -9.5,-5.3 H 3019.1 V 753.3 h 534.1 c 17.8,0 33.3,3.6 46.5,10.7 13.2,7.1 24.2,16.3 32.8,27.5 8.7,11.2 15.1,23.8 19.4,37.7 4.3,14 6.5,27.6 6.5,40.8 v 115.9 z m 314.1,141.1 c 0,13.2 -2.2,26.8 -6.5,40.8 -4.3,14 -10.8,26.6 -19.4,37.7 -8.6,11.2 -19.6,20.3 -32.8,27.5 -13.2,7.1 -28.7,10.7 -46.5,10.7 h -291.6 v -101.4 h 289.3 c 3.1,0 6.2,-1.8 9.5,-5.3 3.3,-3.6 5,-8.4 5,-14.5 v -9.9 h -221.2 v -101.4 h 314.2 z" id="path8"/><path d="M 574.2,1037.8 465.1,745.7 c -2,-5.1 -6.4,-9.7 -13,-13.7 -6.6,-4.1 -14,-6.1 -22.1,-6.1 -7.1,0 -14.5,2 -22.1,6.1 -7.6,4.1 -12.2,8.7 -13.7,13.7 L 174.6,1372.6 H 73.1 l 235.6,-665 c 4.1,-10.7 9.4,-21 16,-30.9 6.6,-9.9 14.9,-18.8 24.8,-26.7 9.9,-7.9 21.5,-14.1 34.7,-18.7 13.2,-4.6 28.5,-6.9 45.8,-6.9 17.3,0 32.3,2.3 45,6.9 12.7,4.6 23.9,10.8 33.6,18.7 9.7,7.9 17.9,16.8 24.8,26.7 6.9,9.9 12.8,20.2 17.9,30.9 l 22.9,45.8 22.9,-45.8 c 5.6,-10.7 11.8,-21 18.7,-30.9 6.9,-9.9 15,-18.8 24.4,-26.7 9.4,-7.9 20.5,-14.1 33.2,-18.7 12.7,-4.6 27.7,-6.9 45,-6.9 16.8,0 31.9,2.3 45.4,6.9 13.5,4.6 25.2,10.8 35.1,18.7 9.9,7.9 18.3,16.8 25.2,26.7 6.9,9.9 12.1,20.2 15.6,30.9 l 235.6,665 H 973.8 L 754.1,745.7 c -1.5,-5.1 -6.1,-9.7 -13.7,-13.7 -7.6,-4.1 -15,-6.1 -22.1,-6.1 -8.1,0 -15.5,2 -22.1,6.1 -6.6,4.1 -10.9,8.7 -13,13.7 z m 0,334.8 L 430,988.2 303.4,1372.6 H 202 L 411,764.8 c 1,-3.1 3.6,-5.7 7.6,-8 4.1,-2.3 7.9,-3.4 11.4,-3.4 3.6,0 7.2,1.1 11.1,3.4 3.8,2.3 6.2,5 7.2,8 l 125.8,347 125.8,-347 c 1,-3.1 3.4,-5.7 7.2,-8 3.8,-2.3 7.5,-3.4 11.1,-3.4 3.5,0 7.4,1.1 11.4,3.4 4.1,2.3 6.6,5 7.6,8 l 209,607.8 H 848.6 L 718.3,988.2 Z" id="path10" fill="#034693" fill-opacity="1"/><path d="m 1171.3,1359.6 c -26.4,-8.6 -48.4,-22.2 -66,-40.8 -17.5,-18.6 -30.5,-42.4 -38.9,-71.7 -8.4,-29.2 -12.6,-64.2 -12.6,-104.9 V 854.7 c 0,-42.2 4.2,-77.9 12.6,-107.1 8.4,-29.2 21.4,-53 38.9,-71.3 17.5,-18.3 39.5,-31.5 66,-39.7 26.4,-8.1 58,-12.2 94.6,-12.2 h 97.6 c 37.1,0 69,4.1 95.7,12.2 26.7,8.1 48.7,21.4 66,39.7 17.3,18.3 30,42.1 38.1,71.3 8.1,29.2 12.2,65 12.2,107.1 v 287.5 c 0,40.7 -4.1,75.6 -12.2,104.9 -8.1,29.2 -20.9,53.1 -38.1,71.7 -17.3,18.6 -39.3,32.2 -66,40.8 -26.7,8.7 -58.6,13 -95.7,13 h -97.6 c -36.7,0 -68.2,-4.4 -94.6,-13 z m 202.8,-88.5 c 19.3,0 35.6,-2.7 48.8,-8 13.2,-5.3 24,-12.8 32.4,-22.5 8.4,-9.7 14.5,-21.1 18.3,-34.3 3.8,-13.2 5.7,-27.5 5.7,-42.7 V 833.4 c 0,-15.3 -1.9,-29.5 -5.7,-42.7 -3.8,-13.2 -9.9,-24.7 -18.3,-34.3 -8.4,-9.7 -19.3,-17.2 -32.8,-22.5 -13.5,-5.3 -29.9,-8 -49.2,-8 h -117.4 c -19.3,0 -35.7,2.7 -49.2,8 -13.5,5.3 -24.4,12.8 -32.8,22.5 -8.4,9.7 -14.5,21.1 -18.3,34.3 -3.8,13.2 -5.7,27.5 -5.7,42.7 v 330.2 c 0,15.3 1.9,29.5 5.7,42.7 3.8,13.2 9.9,24.7 18.3,34.3 8.4,9.7 19.2,17.2 32.4,22.5 13.2,5.3 29.5,8 48.8,8 h 59.5 z m -109,-27.4 c -17.8,0 -32.4,-1.6 -43.8,-5 -11.4,-3.3 -20.3,-8.8 -26.7,-16.4 -6.4,-7.6 -10.8,-17.4 -13.3,-29.4 -2.5,-11.9 -3.8,-26.8 -3.8,-44.6 V 848.6 c 0,-13.2 1.3,-25.7 3.8,-37.4 2.5,-11.7 7.1,-21.9 13.7,-30.5 6.6,-8.6 15.6,-15.4 27.1,-20.2 11.4,-4.8 26,-7.2 43.8,-7.2 h 48.8 48.8 c 17.8,0 32.4,2.4 43.8,7.2 11.4,4.8 20.5,11.6 27.1,20.2 6.6,8.7 11.2,18.8 13.7,30.5 2.5,11.7 3.8,24.2 3.8,37.4 v 299.7 c 0,17.8 -1.3,32.7 -3.8,44.6 -2.6,12 -7,21.7 -13.3,29.4 -6.4,7.6 -15.3,13.1 -26.7,16.4 -11.4,3.3 -26.1,5 -43.8,5 z m 74,-101.4 c 6.1,0 10,-1.8 11.8,-5.3 1.8,-3.6 2.7,-8.4 2.7,-14.5 V 874.6 c 0,-6.1 -0.9,-10.9 -2.7,-14.5 -1.8,-3.5 -5.7,-5.3 -11.8,-5.3 h -48.8 c -6.1,0 -10,1.8 -11.8,5.3 -1.8,3.6 -2.7,8.4 -2.7,14.5 v 247.8 c 0,6.1 0.9,10.9 2.7,14.5 1.8,3.6 5.7,5.3 11.8,5.3 h 48.8 z" id="path12" fill="#034693" fill-opacity="1"/><path d="m 2181,854.7 c 0,-32 5.8,-62.2 17.5,-90.4 11.7,-28.2 27.3,-52.6 46.9,-73.2 19.6,-20.6 42.2,-36.9 67.9,-48.8 25.7,-11.9 52.2,-17.9 79.7,-17.9 h 289 v 101.4 h -276.8 c -19.3,0 -36.6,3.8 -51.9,11.4 -15.3,7.6 -28.1,17.5 -38.5,29.7 -10.4,12.2 -18.4,26.1 -24,41.6 -5.6,15.5 -8.4,30.9 -8.4,46.1 v 287.5 c 0,15.3 2.8,30.6 8.4,46.1 5.6,15.5 13.6,29.4 24,41.6 10.4,12.2 23.3,22.1 38.5,29.7 15.3,7.6 32.5,11.4 51.9,11.4 H 2682 v 101.4 h -289 c -27.5,0 -54,-6 -79.7,-17.9 -25.7,-11.9 -48.3,-28.2 -67.9,-48.8 -19.6,-20.6 -35.2,-45 -46.9,-73.2 -11.7,-28.2 -17.5,-58.3 -17.5,-90.4 z m 128.8,131.2 V 870 c 0,-13.2 2.2,-26.8 6.5,-40.8 4.3,-14 10.8,-26.6 19.4,-37.7 8.6,-11.2 19.6,-20.3 32.8,-27.5 13.2,-7.1 28.7,-10.7 46.5,-10.7 h 267 v 101.4 h -264.6 c -3.1,0 -6.2,1.8 -9.5,5.3 -3.3,3.6 -5,8.4 -5,14.5 v 10.7 H 2624 v 100.7 z m 0,25.2 H 2624 v 101.4 h -221.2 v 9.9 c 0,6.1 1.6,10.9 5,14.5 3.3,3.6 6.5,5.3 9.5,5.3 H 2682 v 101.4 h -266.9 c -17.8,0 -33.3,-3.6 -46.5,-10.7 -13.2,-7.1 -24.2,-16.3 -32.8,-27.5 -8.7,-11.2 -15.1,-23.8 -19.4,-37.7 -4.3,-14 -6.5,-27.6 -6.5,-40.8 v -115.8 z" id="path14" fill="#034693" fill-opacity="1"/><path d="m 3255.3,1372.6 h -309.4 c -27.5,0 -54,-6 -79.7,-17.9 -25.7,-11.9 -48.3,-28.2 -67.9,-48.8 -19.6,-20.6 -35.2,-45 -46.9,-73.2 -11.7,-28.2 -17.5,-58.3 -17.5,-90.4 V 624.4 h 101.4 v 517.8 c 0,15.3 2.8,30.6 8.4,46.1 5.6,15.5 13.6,29.4 24,41.6 10.4,12.2 23.3,22.1 38.5,29.7 15.3,7.6 32.5,11.4 51.9,11.4 h 297.2 z m -273.6,-230.3 h 269 v 101.4 H 2968 c -17.8,0 -33.3,-3.6 -46.5,-10.7 -13.2,-7.1 -24.2,-16.3 -32.8,-27.5 -8.7,-11.2 -15.1,-23.8 -19.4,-37.7 -4.3,-14 -6.5,-27.6 -6.5,-40.8 V 624.4 h 104.5 v 498 c 0,6.1 1.6,10.8 5,14.1 3.3,3.3 6.5,5 9.5,5 v 0.8 z" id="path16" fill="#034693" fill-opacity="1"/><rect x="1117.3529" y="-3292.5808" transform="rotate(90)" width="290.60001" height="51.700001" id="rect18" fill="#ffffff" fill-opacity="1"/><path d="M 2486.1,81.5 C 2471.1,34 2426.3,0 2374.6,0 2323,0 2278.1,34 2263.2,81.5 l -39.4,116.9 V 6.8 h -206.6 c -36.7,0 -70.7,14.9 -96.5,39.4 V 6.8 h -212 c -39.4,0 -74.7,16.3 -100.6,43.5 V 6.8 H 1407 c -85.6,0 -156.3,70.7 -156.3,156.3 0,40.8 16.3,78.8 42.1,106 h -42.1 v 182.1 h 201.1 c 57.1,0 106,-29.9 134.5,-76.1 23.1,44.8 69.3,76.1 123.7,76.1 h 213.4 v -39.4 c 24.5,24.5 58.4,39.4 96.5,39.4 h 589.8 z" id="path22" fill="#ffffff" fill-opacity="1"/><g id="g46" fill="#034693" fill-opacity="1"><g id="g28" fill="#034693" fill-opacity="1"><path d="M 1451.9,301.7 H 1282 v 53 h 169.9 c 32.6,0 59.8,-27.2 59.8,-59.8 0,-32.6 -27.2,-59.8 -59.8,-59.8 h -43.5 c -39.4,0 -72,-32.6 -72,-72 0,-39.4 32.6,-72 72,-72 h 168.5 v -53 H 1407 c -69.3,0 -125,55.7 -125,125 0,69.3 55.7,125 125,125 h 43.5 c 4.1,0 6.8,2.7 6.8,6.8 0,4.1 -2.7,6.8 -5.4,6.8 z" id="path24" fill="#034693" fill-opacity="1"/><path d="m 1407,157.6 h 169.9 V 103.2 H 1407 c -32.6,0 -59.8,27.2 -59.8,59.8 0,32.6 27.2,59.8 59.8,59.8 h 43.5 c 39.4,0 72,32.6 72,72 0,39.4 -32.6,72 -72,72 H 1282 v 53 h 169.9 c 69.3,0 125,-55.7 125,-125 0,-69.3 -55.7,-125 -125,-125 h -43.5 c -4.1,0 -6.8,-2.7 -6.8,-6.8 0,-2.6 2.7,-5.4 5.4,-5.4 z" id="path26" fill="#034693" fill-opacity="1"/></g><g id="g36" fill="#034693" fill-opacity="1"><path d="m 2017.2,103.3 c -23.1,0 -40.8,17.7 -40.8,40.8 V 314 c 0,23.1 17.7,40.8 40.8,40.8 h 110.1 V 235.1 H 2043 v 53 h 31.3 v 12.2 H 2043 c -6.8,0 -12.2,-5.4 -12.2,-12.2 V 168.5 c 0,-6.8 5.4,-12.2 12.2,-12.2 h 150.9 v -53 z" id="path30" fill="#034693" fill-opacity="1"/><path d="m 2351.5,354.7 h 123.7 l -84.3,-250.1 c -2.7,-6.8 -8.2,-12.2 -16.3,-12.2 -6.8,0 -13.6,5.4 -16.3,10.9 L 2249.6,420 h 62.5 l 38.1,-112.8 v 47.6 h 1.3 z m 21.8,-114.2 17.7,54.4 h -36.7 z" id="path32" fill="#034693" fill-opacity="1"/><path d="m 2456.2,93.8 c -10.9,-35.3 -43.5,-62.5 -82.9,-62.5 -39.4,0 -72,25.8 -81.5,61.2 l -99.2,290.8 V 169.9 H 2043 v 53 h 97.8 V 367 h -122.3 c -29.9,0 -53,-24.5 -53,-53 V 144.1 c 0,-29.9 24.5,-53 53,-53 h 175.3 v -53 h -176.7 c -58.4,0 -106,47.6 -106,106 V 314 c 0,58.4 47.6,106 106,106 H 2236 l 110.1,-319.4 c 4.1,-12.2 14.9,-20.4 28.5,-20.4 13.6,0 24.5,8.2 28.5,20.4 l 89.7,266.4 h -141.3 v 53 h 214.7 v 0 z" id="path34" fill="#034693" fill-opacity="1"/></g><g id="g44" fill="#034693" fill-opacity="1"><path d="m 1708.7,366.9 c -29.9,0 -53,-24.5 -53,-53 V 144.1 c 0,-29.9 24.5,-53 53,-53 h 182.1 v -53 h -182.1 c -58.4,0 -106,47.6 -106,106 V 314 c 0,58.4 47.6,106 106,106 h 182.1 v -53 h -182.1 z" id="path38" fill="#034693" fill-opacity="1"/><path d="m 1720.9,289.5 h 131.8 v -53 h -184.8 v 78.8 c 0,23.1 17.7,40.8 40.8,40.8 h 182.1 v -53 h -157.6 c -6.8,-1.4 -12.3,-6.8 -12.3,-13.6 z" id="path40" fill="#034693" fill-opacity="1"/><path d="M 1852.8,169.9 H 1721 c 0,-6.8 5.4,-12.2 12.2,-12.2 h 156.3 v -54.4 h -180.8 c -23.1,0 -40.8,17.7 -40.8,40.8 v 78.8 h 184.8 c 0.1,0 0.1,-53 0.1,-53 z" id="path42" fill="#034693" fill-opacity="1"/></g></g></svg>