<?xml version="1.0" encoding="UTF-8" standalone="no"?><!--Uploaded to: SVG Repo, www.svgrepo.com, Generator: SVG Repo Mixer Tools--><svg width="800" height="800" viewBox="0 0 24 24" fill="none" version="1.1" id="svg1" xmlns="http://www.w3.org/2000/svg" xmlns:svg="http://www.w3.org/2000/svg"><defs id="defs1"/><path fill-rule="evenodd" clip-rule="evenodd" d="M 5.07868,5.06891 C 8.87402,1.27893 15.0437,1.31923 18.8622,5.13778 22.6824,8.95797 22.7211,15.1313 18.9262,18.9262 15.1312,22.7211 8.95793,22.6824 5.13774,18.8622 2.87389,16.5984 1.93904,13.5099 2.34047,10.5812 2.39672,10.1708 2.775,9.88377 3.18537,9.94002 3.59575,9.99627 3.88282,10.3745 3.82658,10.7849 3.4866,13.2652 4.27782,15.881 6.1984,17.8016 c 3.24448,3.2445 8.468,3.263 11.6671,0.0639 C 21.0646,14.6664 21.046,9.44292 17.8015,6.19844 14.5587,2.95561 9.33889,2.93539 6.13935,6.12957 l 0.7477,0.00376 C 7.30126,6.13541 7.63535,6.47288 7.63327,6.88709 7.63119,7.3013 7.29372,7.63539 6.87951,7.63331 L 4.33396,7.62052 C 3.92269,7.61845 3.58981,7.28556 3.58774,6.8743 L 3.57495,4.32874 C 3.57286,3.91454 3.90696,3.57707 4.32117,3.57498 4.73538,3.5729 5.07285,3.907 5.07493,4.32121 Z m 6.92122,2.18101 c 0.4142,0 0.75,0.33579 0.75,0.75 v 3.68938 l 2.2803,2.2803 c 0.2929,0.2929 0.2929,0.7678 0,1.0606 -0.2929,0.2929 -0.7678,0.2929 -1.0606,0 L 11.2499,12.3106 V 7.99992 c 0,-0.41421 0.3358,-0.75 0.75,-0.75 z" fill="#F4C401" id="path1" fill-opacity="1"/></svg>